<?xml version="1.0" encoding="utf-8"?>
<!-- Generator: Adobe Illustrator 26.0.1, SVG Export Plug-In . SVG Version: 6.00 Build 0)  -->
<svg version="1.1" id="Livello_1" xmlns="http://www.w3.org/2000/svg" xmlns:xlink="http://www.w3.org/1999/xlink" x="0px" y="0px"
	 viewBox="0 0 2000 2000" style="enable-background:new 0 0 2000 2000;" xml:space="preserve">
<style type="text/css">
	.st0{fill:#F5F5F5;}
	.st1{fill:#436D6B;}
	.st2{opacity:0.4;fill:#436D6B;enable-background:new    ;}
	.st3{fill:#636566;}
	.st4{opacity:0.3;fill:#636566;enable-background:new    ;}
	.st5{fill:#A5A5A5;}
	.st6{fill:#007CFF;}
	.st7{opacity:0.3;enable-background:new    ;}
	.st8{fill:#FFC3BD;}
	.st9{fill:#1A2E35;}
	.st10{opacity:0.2;enable-background:new    ;}
	.st11{opacity:0.5;fill:#FFFFFF;enable-background:new    ;}
	.st12{opacity:0.5;fill:#007CFF;enable-background:new    ;}
	.st13{fill:#568584;}
	.st14{opacity:0.5;fill:#568584;enable-background:new    ;}
	.st15{fill:#FFFFFF;}
	.st16{fill:#FF847F;}
	.st17{fill:#658E8B;}
	.st18{opacity:0.2;fill:#436D6B;enable-background:new    ;}
	.st19{opacity:0.72;fill:#414444;enable-background:new    ;}
	.st20{fill:#B2B2B2;}
	.st21{opacity:0.2;fill:#B2B2B2;enable-background:new    ;}
	.st22{fill:#696B6B;}
	.st23{fill:#414444;}
	.st24{opacity:0.2;fill:#414444;enable-background:new    ;}
	.st25{opacity:0.2;fill:#658E8B;enable-background:new    ;}
	.st26{opacity:0.2;}
	.st27{opacity:0.7;fill:#568584;enable-background:new    ;}
	.st28{fill:#FFFFFF;stroke:#464747;stroke-width:0.25;stroke-miterlimit:10;}
	.st29{opacity:0.2;fill:#FFFFFF;stroke:#464747;stroke-width:0.25;stroke-miterlimit:10;enable-background:new    ;}
</style>
<ellipse id="_x3C_Path_x3E__97_" class="st0" cx="1005.3" cy="1586.6" rx="992.6" ry="58"/>
<g>
	<polygon class="st1" points="1255.1,1532.4 1182.7,1523.9 1182.7,1108.7 1120.8,1108.7 1120.8,1523.9 1048.3,1532.4 1042,1552.9 
		1261.5,1552.9 	"/>
	<polygon class="st2" points="1255.1,1532.4 1182.7,1523.9 1182.7,1108.7 1120.8,1108.7 1120.8,1523.9 1048.3,1532.4 1042,1552.9 
		1261.5,1552.9 	"/>
</g>
<g>
	<path class="st3" d="M1133,549.9c107.5,0,214.9,0,322.5,0c-55.2,175-83.3,353-83.2,528c-107.5,0-214.9,0-322.5,0
		C1049.6,903,1077.7,724.8,1133,549.9z"/>
	<path class="st4" d="M1133,549.9c107.5,0,214.9,0,322.5,0c-55.2,175-83.3,353-83.2,528c-107.5,0-214.9,0-322.5,0
		C1049.6,903,1077.7,724.8,1133,549.9z"/>
</g>
<path class="st5" d="M1113.6,549.9c107.5,0,214.9,0,322.5,0c-55.2,175-83.3,353-83.2,528c-107.5,0-214.9,0-322.5,0
	C1030.3,903,1058.4,724.8,1113.6,549.9z"/>
<g>
	<path class="st6" d="M1298.5,1127.4H842l0,0c19.2-41.7,54.1-67.4,91.8-67.4h333.8L1298.5,1127.4z"/>
	<g>
		<path class="st6" d="M1391.3,1127.4h-220.4l0,0c19.2-41.7,54.1-67.4,91.8-67.4h78C1378.3,1060.1,1396.9,1081.9,1391.3,1127.4
			L1391.3,1127.4z"/>
		<path class="st7" d="M1391.3,1127.4h-220.4l0,0c19.2-41.7,54.1-67.4,91.8-67.4h78C1378.3,1060.1,1396.9,1081.9,1391.3,1127.4
			L1391.3,1127.4z"/>
	</g>
</g>
<polygon class="st8" points="940.9,1510.1 899.7,1515.7 872.7,1422.1 914.1,1416.6 "/>
<path class="st9" d="M894.5,1504.8l46.3-6.2c1.6-0.2,3.1,0.8,3.4,2.4l7,36.4c0.8,3.7-2.4,7.8-6.2,8.3c-16.2,1.8-24,1.9-44.3,4.5
	c-12.5,1.6-55.7,7.6-73.1,7.8c-17.1,0.2-17.1-17.2-9.7-18.8c33.1-7.1,59.5-20.5,69.9-31C889.6,1506.4,892,1505.1,894.5,1504.8z"/>
<g>
	<polygon class="st10" points="914.1,1416.6 872.7,1422.1 886.7,1470.3 927.9,1464.8 	"/>
</g>
<path class="st9" d="M1076.6,910.2c0,0-323.9,23.2-310.8,141.8c18.8,170.6,92.3,394.4,92.3,394.4l75.1-12.8
	c0,0-31.7-206.6-48.4-339.4c80.7-33.5,299.9-1.5,325.7-71.2c21.1-57,9.6-112.7,9.6-112.7L1076.6,910.2L1076.6,910.2z"/>
<path class="st7" d="M918.7,1009c0,0,7.8,35.3,13.3,73.6c-0.2,0-0.5,0-0.8,0.2c-2.8,0.3-5.7,0.8-8.3,1.3c-1.5,0.3-2.9,0.5-4.2,0.8
	c-1.6,0.3-3.2,0.6-4.7,1c-6.8,1.5-13.3,3.1-19.2,4.9c-1.5,0.5-2.9,1-4.4,1.5c-1.9,0.6-3.7,1.3-5.5,2.1c1.9,15.3,8.4,35.4,8.4,53
	C821.4,1061.8,880.7,1009,918.7,1009z"/>
<polygon class="st1" points="944.8,1450.5 856.6,1462.2 844.8,1430.4 933,1410.7 "/>
<path class="st1" d="M880.8,1513.9c3.7-0.5,8-1.8,10.9-2.9c0.3-0.2,0.6-0.5,0.6-0.8s-0.2-0.8-0.5-1c-1.5-0.8-14.1-7.1-19-4.5
	c-1.1,0.6-1.8,1.6-1.9,3.1c-0.2,2.3,0.5,3.9,1.9,5C874.7,1514.2,877.6,1514.4,880.8,1513.9z M888.8,1510c-7.1,2.4-12.7,2.9-14.8,1.3
	c-1-0.6-1.3-1.8-1.1-3.4c0-0.6,0.3-1.1,0.8-1.5C876.3,1504.9,883.6,1507.5,888.8,1510z"/>
<path class="st1" d="M891.4,1511.1c0.2,0,0.3-0.2,0.5-0.2c0.3-0.2,0.5-0.5,0.5-0.8c0-0.5-0.6-12.5-5.4-15.9c-1.3-1-2.8-1.1-4.2-0.8
	c-1.9,0.5-2.9,1.6-3.1,3.4c-0.3,4.5,7,12.5,11.4,14.3C891.1,1511.1,891.2,1511.1,891.4,1511.1z M883.6,1495c0.8-0.2,1.5,0.2,2.1,0.5
	c2.8,2.1,4.1,8.8,4.4,12.7c-4.1-2.6-8.9-8.6-8.8-11.5c0-0.6,0.3-1.3,1.6-1.6C883.3,1495.2,883.4,1495,883.6,1495z"/>
<path class="st8" d="M1121.4,589.8c-3.6,16.1-8,31-12.3,46.3c-4.5,15.3-9.3,30.4-14.6,45.5c-5.2,15.1-10.9,30.1-17.1,44.8
	c-6.2,14.9-12.8,29.6-20.1,44.2l-1.3,2.6l-0.5,0.8c-5.5,7.8-10.9,12.3-16.1,16.2c-5.2,3.9-10.2,6.8-15.1,9.4
	c-9.9,5.4-19.5,9.1-29.2,12.7c-9.7,3.4-19.3,6.2-29.1,8.6c-9.7,2.3-19.3,4.4-29.6,5.7L927,797l24.4-13.6c8.1-4.5,15.9-9.1,23.6-13.8
	c7.6-4.5,14.9-9.6,21.1-14.5c3.1-2.4,6-4.9,8.1-7.1c2.1-2.3,3.6-4.4,3.2-4.5l-1.8,3.4c5.5-13.6,10.7-27.6,15.6-41.7
	s9.4-28.6,14-42.9c4.4-14.5,8.8-28.9,12.8-43.5c4.2-14.5,8.1-29.4,12-43.5L1121.4,589.8z"/>
<g>
	<path class="st6" d="M1053.7,578.8c-33.8,38.8-56.2,93.2-56.2,93.2l88.5,53.3c25.5-31.2,57.3-113.6,58.8-141.3
		C1146.6,541.3,1090.1,536.9,1053.7,578.8z"/>
	<path class="st11" d="M1053.7,578.8c-33.8,38.8-56.2,93.2-56.2,93.2l88.5,53.3c25.5-31.2,57.3-113.6,58.8-141.3
		C1146.6,541.3,1090.1,536.9,1053.7,578.8z"/>
</g>
<path class="st12" d="M1084.9,618.4c-19.3,16.2-33,50-39,82.7l40.1,24.2c12.7-15.4,26.8-43.4,38.2-71
	C1115.1,626.7,1101.9,604,1084.9,618.4z"/>
<polygon class="st8" points="1072.4,1535.1 1030.8,1535.1 1011.6,1438.6 1053.4,1438.6 "/>
<path class="st9" d="M1029.5,1524.9h46.8c1.8,0,2.9,1.1,3.1,2.9l2.3,37c0.2,3.9-3.4,7.5-7.3,7.5c-16.2-0.3-24-1.3-44.7-1.3
	c-12.7,0-55.6,1.3-73.1,1.3c-17.1,0-17.1-17.2-9.6-18.8c33.1-7,63.5-16.7,75.2-26C1024.4,1525.9,1026.9,1524.9,1029.5,1524.9z"/>
<g>
	<polygon class="st10" points="1053.4,1438.8 1011.6,1438.8 1021.5,1488.4 1063.1,1488.4 	"/>
</g>
<path class="st9" d="M1158.1,910.2c0,0-274.4,23.2-267.7,142.3c7.3,130.4,113.1,424,113.1,424h76.2c0,0-34.4-265.4-51.2-398.3
	c77.3,0,237.8,14.6,263.5-55.2c21.1-57,7.3-110.6,7.3-110.6L1158.1,910.2z"/>
<polygon class="st1" points="1084.1,1477.6 992.6,1481.7 985.6,1442.4 1081.1,1442.9 "/>
<path class="st1" d="M1014.7,1532.2c3.9,0,8.1-0.8,11-1.5c0.3-0.2,0.6-0.3,0.6-0.8c0-0.3-0.2-0.8-0.3-1c-1.3-1-13.2-8.9-18.2-7
	c-1.1,0.5-1.9,1.5-2.3,2.8c-0.5,2.3,0,3.9,1.3,5.2C1008.5,1531.6,1011.4,1532.2,1014.7,1532.2z M1023.1,1529.3
	c-7.5,1.5-13,1.3-14.9-0.6c-0.8-0.8-1-1.9-0.6-3.4c0.2-0.6,0.5-1.1,1.1-1.3C1011.3,1522.8,1018.3,1526.2,1023.1,1529.3z"/>
<path class="st1" d="M1025.6,1530.8c0.2,0,0.3,0,0.5-0.2c0.3-0.2,0.5-0.5,0.5-0.8c0-0.5,1-12.5-3.2-16.6c-1.1-1.1-2.6-1.5-4.1-1.3
	c-1.9,0.2-3.1,1.3-3.6,2.9c-1,4.5,5.2,13.2,9.4,15.8C1025.2,1530.8,1025.4,1530.8,1025.6,1530.8z M1019.9,1513.9
	c0.8,0,1.5,0.3,2.1,0.8c2.4,2.4,2.9,9.3,2.8,13.2c-3.6-3.1-7.8-9.6-7.1-12.7c0.2-0.5,0.5-1.3,1.8-1.5
	C1019.6,1513.9,1019.7,1513.9,1019.9,1513.9z"/>
<path class="st8" d="M946.6,798.1l-46.5-11.7l3.2,49.7c0,0,46,0.2,50-13.5L946.6,798.1z"/>
<polygon class="st8" points="864.6,810.8 875.6,842 903.2,836.1 900,786.4 "/>
<g>
	<path class="st13" d="M1076.7,912.3h222.6c1.6-19.8-3.1-84.6,0.3-167c2.3-55.2,8.3-118.6,22.1-181.6c1-4.5,1.9-8.9,3.1-13.5
		c0,0-11.2-2.3-27.5-4.7c-13.5-1.9-30.2-4.1-46.8-4.7c-28.4-1.3-69.5-2.3-94.5,0c-14.5,1.3-28.8,3.7-40.1,6
		c-14.5,2.9-23.1,5.4-23.1,5.4S1038.2,678.2,1076.7,912.3z"/>
	<path class="st14" d="M1076.7,912.3h222.6c1.6-19.8-3.1-84.6,0.3-167c2.3-55.2,8.3-118.6,22.1-181.6c1-4.5,1.9-8.9,3.1-13.5
		c0,0-11.2-2.3-27.5-4.7c-13.5-1.9-30.2-4.1-46.8-4.7c-28.4-1.3-69.5-2.3-94.5,0c-14.5,1.3-28.8,3.7-40.1,6
		c-14.5,2.9-23.1,5.4-23.1,5.4S1038.2,678.2,1076.7,912.3z"/>
</g>
<path class="st12" d="M1299.8,745.3c2.3-55.2,8.3-118.6,22.1-181.6c-14.9-1.3-40.3,0.2-44.5,24.2
	C1272.8,613.7,1272.5,674.2,1299.8,745.3z"/>
<path class="st8" d="M1339.1,579.1c2.1,3.9,3.6,7,5.4,10.4c1.6,3.2,3.1,6.7,4.5,10.1c2.9,6.7,5.8,13.3,8.4,20.1
	c5.2,13.5,9.9,27.5,13.8,41.6c3.9,14.1,7,28.8,9.1,43.5c2.1,14.9,3.2,30.2,2.8,45.8v1.5l-0.2,2.9c-0.2,2.1-0.5,4.1-0.8,6.2
	c-0.8,3.9-2.1,7.8-3.7,11c-3.1,6.7-7.1,11.9-11.2,15.8c-8,8-15.9,12.5-23.4,16.6c-14.9,7.6-29.4,11.7-43.7,15.4
	c-14.3,3.4-28.4,5.8-42.6,7.6s-27.9,2.9-42.6,3.1l-4.2-31c25.3-7.5,51.3-15.4,74.9-25c11.7-4.7,23.1-10.2,31.8-16.1
	c4.4-2.9,7.8-6,9.3-8.1c0.6-1,0.6-1.5,0.3-1.1c-0.2,0.2-0.5,0.6-0.6,1.3c-0.2,0.3-0.2,0.6-0.3,1c0,0.2,0,0.5,0,0.3l-0.2-1.1
	c-1.3-23.6-7.1-47.9-14.8-72c-3.9-12-8.3-24-13-35.9c-2.3-6-4.7-11.9-7.3-17.7l-3.9-8.6l-3.7-8.1L1339.1,579.1z"/>
<g>
	<path class="st13" d="M1325,550.4c-40.5-12.8-66.4,19.7-55.2,75.9c11.2,56.2,25.7,77.2,25.7,77.2l94.9-13.5
		C1382.3,634.7,1366.4,563.5,1325,550.4z"/>
	<path class="st14" d="M1325,550.4c-40.5-12.8-66.4,19.7-55.2,75.9c11.2,56.2,25.7,77.2,25.7,77.2l94.9-13.5
		C1382.3,634.7,1366.4,563.5,1325,550.4z"/>
</g>
<path class="st8" d="M1248.8,434.9l-25.3,21l-34.4,28.6c1,4.7,1.8,9.4,2.1,14c1.8,18.7-2.9,35.7-30.5,42.2c0,0-27.1,25.3,27.1,26
	c54.1,0.8,66.8-25.5,66.8-25.5C1233.8,520.8,1241.8,465.2,1248.8,434.9z"/>
<g>
	<path class="st15" d="M1250.6,526c0,0-28.3,29.6-65.6,40.6c14.5,2.6,24.2,15.8,24.4,28.6c26.8-8,58.5-48.2,57.7-55.7
		C1259,534,1250.6,526,1250.6,526z"/>
</g>
<g>
	<path class="st15" d="M1173.1,534.3c0,0-25.3,21.3,12,32.3c-14.5,2.6-24,10.1-28.9,25.8c-20.1-24-8.6-48.6-4.2-54.6
		C1161.7,537,1173.1,534.3,1173.1,534.3z"/>
</g>
<path class="st10" d="M1189,484.4c1,4.7,1.8,9.4,2.1,14c12.8-2.6,30.1-16.2,31.8-29.4c0.6-4.9,0.8-9.7,0.5-13.2L1189,484.4z"/>
<path class="st9" d="M1155.9,341.3c-17.1,14-14,68.6,2.3,63.5C1174.5,399.8,1184,318.2,1155.9,341.3z"/>
<path class="st8" d="M1259.2,391c-8.8,40.5-11.9,64.5-35.7,83c-35.9,27.8-83.7,3.1-87.1-38.8c-3.1-37.7,11.7-97.5,54.4-109
	C1232.5,315,1268,350.5,1259.2,391z"/>
<path class="st9" d="M1245.7,418.8c-6.5-8.1-7-28.6-2.3-35.3c-7-5.7-14-23.6-8.6-30.7c-13.8-1-84.8,16.1-98.9-34.9
	c7.3,2.3,22.3,0,22.3,0s-14.5-24,11.2-31.2c3.7,12.2,34.6,13.3,49.9,12.8c31.4-1.3,67.3,11.9,52.6,36.2
	C1294.9,345.8,1298.7,390.3,1245.7,418.8z"/>
<path class="st9" d="M1266.5,334.1c0,0,15.8,3.2,12.7-16.7C1291.8,328.5,1283.5,348.4,1266.5,334.1z"/>
<path class="st8" d="M1265.8,428.5c-6,7.8-14.6,12.5-22.3,13.8c-11.4,1.9-14.9-8.4-9.9-18.7c4.5-9.3,15.9-21.3,26.6-18.7
	C1270.7,407.4,1272.5,419.6,1265.8,428.5z"/>
<path class="st9" d="M1242.1,404.5c0,0-7,25.2-20.6,41.3s-27.1,19.3-41.8,19c-14.6-0.3-12.5-20.6-12.5-20.6l-7.1-1.6
	c0,0,0.8,25-13.5,14.5c-3.1-2.3-6.2-9.7-8-15.4c-1.5-4.4-2.3-9.1-2.6-13.6l0,0c-3.4,5.5-4.7,30.1,0.5,41.8
	c3.7,8.1,13.8,15.3,22.9,18.2c15.3,4.9,37.5,4.5,53.8-1.9c26.2-10.4,29.9-35.4,30.9-49.7c1-14.3,4.9-31.5,4.9-31.5L1242.1,404.5
	L1242.1,404.5z"/>
<path class="st9" d="M1189.8,394.7c-0.5,3.2-2.8,5.8-4.9,5.5c-2.1-0.3-3.6-3.2-3.1-6.5c0.5-3.2,2.8-5.8,4.9-5.5
	C1189,388.4,1190.5,391.3,1189.8,394.7z"/>
<path class="st9" d="M1152.1,390.2c-0.5,3.2-2.8,5.8-4.9,5.5c-2.1-0.3-3.6-3.2-3.1-6.5c0.5-3.2,2.8-5.8,4.9-5.5
	C1151.3,384,1152.6,386.9,1152.1,390.2z"/>
<path class="st16" d="M1163.7,391.5c0,0-8,16.1-15.8,23.7c4.7,5,13.5,3.2,13.5,3.2L1163.7,391.5z"/>
<path class="st9" d="M1161.4,434.9c13.2,1.8,21.6-5.4,21.9-5.7c0.3-0.3,0.5-1,0.2-1.3c-0.3-0.3-1-0.5-1.5-0.2c-0.2,0-9.7,8.3-24,4.5
	c-0.5-0.2-1.1,0.2-1.1,0.6c-0.2,0.5,0.2,1.1,0.6,1.1C1158.9,434.4,1160.1,434.7,1161.4,434.9z"/>
<path class="st9" d="M1211.3,374.1c0.3,0,0.6-0.2,0.8-0.5c0.8-0.8,1-1.9,0.2-2.8c-7.1-8.1-16.2-6.7-16.6-6.5c-1,0-1.8,1.1-1.6,2.3
	s1.1,1.8,2.3,1.6c0.3,0,7.3-1.1,13,5.2C1209.8,374.1,1210.6,374.3,1211.3,374.1z"/>
<path class="st9" d="M1139.8,366c0.6,0.2,1.3,0,1.8-0.3c6.8-5.7,14-3.9,14.1-3.7c1.1,0.3,2.1-0.3,2.4-1.3s-0.3-2.1-1.3-2.4l0,0
	c-0.3-0.2-9.1-2.4-17.7,4.5c-0.8,0.6-1,1.9-0.3,2.8C1139.1,365.7,1139.5,366,1139.8,366z"/>
<path class="st8" d="M1218.6,797.8h-38.3l18.5,40.9c0,0,37.9-0.5,35.9-20L1218.6,797.8z"/>
<polygon class="st8" points="1143.5,824.1 1163.2,850.7 1198.7,838.7 1180.2,797.8 "/>
<rect x="1503.7" y="866.8" class="st17" width="18.7" height="713"/>
<g>
	<rect x="1614" y="866.8" class="st1" width="18.7" height="713"/>
	<rect x="1614" y="866.8" class="st18" width="18.7" height="713"/>
</g>
<rect x="441.9" y="866.8" class="st17" width="18.7" height="713"/>
<polygon class="st10" points="441.9,866.8 460.6,866.8 460.6,1345.7 441.9,1304 "/>
<rect x="331.4" y="866.8" class="st17" width="18.7" height="713"/>
<rect x="331.4" y="866.8" class="st17" width="1190.9" height="417"/>
<rect x="319.6" y="836.3" class="st1" width="1202.8" height="30.4"/>
<g>
	<rect x="1522.3" y="866.8" class="st1" width="110.3" height="417"/>
	<rect x="1522.3" y="866.8" class="st18" width="110.3" height="417"/>
</g>
<g>
	<rect x="1522.3" y="836.3" class="st1" width="122.3" height="30.4"/>
	<rect x="1522.3" y="836.3" class="st18" width="122.3" height="30.4"/>
</g>
<rect x="331.4" y="866.8" class="st10" width="1301.2" height="21.3"/>
<path class="st19" d="M1076.3,754.4H633.7c-16.9,0-31.2-13.8-32-30.7L590,466.5c-0.8-16.9,12.3-30.7,29.2-30.7h442.5
	c16.9,0,31.2,13.8,32,30.7l11.7,257.2C1106.3,740.6,1093.2,754.4,1076.3,754.4z"/>
<g>
	<path class="st20" d="M1070.4,754.4H627.7c-16.9,0-31.2-13.8-32-30.7L584,466.5c-0.8-16.9,12.3-30.7,29.2-30.7h442.5
		c16.9,0,31.2,13.8,32,30.7l11.7,257.2C1100.3,740.6,1087.1,754.4,1070.4,754.4z"/>
	<path class="st21" d="M1070.4,754.4H627.7c-16.9,0-31.2-13.8-32-30.7L584,466.5c-0.8-16.9,12.3-30.7,29.2-30.7h442.5
		c16.9,0,31.2,13.8,32,30.7l11.7,257.2C1100.3,740.6,1087.1,754.4,1070.4,754.4z"/>
</g>
<rect x="804.3" y="599.1" class="st22" width="84.5" height="155.5"/>
<g>
	<path class="st23" d="M801.7,582.4l-37.4,253.7h91.5l37.4-253.7L801.7,582.4L801.7,582.4z M855.3,663.1l-6,40.9
		c-1,6.3-6.3,10.9-12.7,10.9h-13.8c-7.8,0-13.8-7-12.7-14.8l6-40.9c1-6.3,6.3-10.9,12.7-10.9h13.8
		C850.5,648.3,856.5,655.3,855.3,663.1z"/>
	<path class="st24" d="M801.7,582.4l-37.4,253.7h91.5l37.4-253.7L801.7,582.4L801.7,582.4z M855.3,663.1l-6,40.9
		c-1,6.3-6.3,10.9-12.7,10.9h-13.8c-7.8,0-13.8-7-12.7-14.8l6-40.9c1-6.3,6.3-10.9,12.7-10.9h13.8
		C850.5,648.3,856.5,655.3,855.3,663.1z"/>
</g>
<g>
	<polygon class="st17" points="907.8,817.8 747.8,817.8 728.1,836.3 950.4,836.3 	"/>
	<polygon class="st25" points="907.8,817.8 747.8,817.8 728.1,836.3 950.4,836.3 	"/>
</g>
<g>
	<g>
		<path class="st1" d="M435.2,779.4c-9.1-5-6-54.4-1.9-82.5c4.9-34.1,19.2-94.2,64.7-127.7c21.8-15.9,42.4-29.4,46.1-46.6
			c6.7,15.3,44.5,124.1-9.4,173C488.8,736.9,455,727.8,435.2,779.4z"/>
	</g>
	<g class="st26">
		<path class="st1" d="M435.2,779.4c-9.1-5-6-54.4-1.9-82.5c4.9-34.1,19.2-94.2,64.7-127.7c21.8-15.9,42.4-29.4,46.1-46.6
			c6.7,15.3,44.5,124.1-9.4,173C488.8,736.9,455,727.8,435.2,779.4z"/>
	</g>
</g>
<path class="st17" d="M447.1,751.5c10.6-5.8-1.5-63.2-11-96C424.3,616,396.4,546.1,333.7,508c-29.9-18.2-58.2-33.6-65.5-53.6
	c-5.8,17.9-24.5,157.7,51.3,213.8C383.6,715.6,413.6,691.7,447.1,751.5z"/>
<path class="st15" d="M441.9,738.6c-0.6,0-1.1-0.3-1.3-1s-17.2-59-58.5-140.4c-38.5-75.5-90-87.7-90.5-87.9c-0.8-0.2-1.3-1-1.1-1.6
	c0.2-0.8,0.8-1.3,1.6-1.1c0.5,0.2,53.3,12.5,92.4,89.3c41.4,81.6,58.5,140.2,58.8,140.8c0.2,0.8-0.2,1.5-1,1.8
	C442,738.6,441.9,738.6,441.9,738.6z"/>
<path class="st15" d="M278.8,559c-0.3,0-0.6-0.2-1-0.3c-0.5-0.5-0.6-1.5,0-1.9c0.3-0.3,30.4-31.4,72.5-10.7c0.6,0.3,1,1.1,0.6,1.9
	c-0.3,0.6-1.1,1-1.9,0.6c-40.1-19.8-68.9,9.7-69.2,10.1C279.4,558.8,279.1,559,278.8,559z"/>
<path class="st15" d="M332.9,652.4c-0.3,0-0.5,0-0.6-0.2c-0.6-0.3-0.8-1.3-0.5-1.9c0.3-0.5,25.7-42.7,63-32.3c0.8,0.2,1.1,1,1,1.8
	s-1,1.1-1.8,1c-35.4-9.7-59.6,30.7-59.9,31C333.9,652.1,333.4,652.4,332.9,652.4z"/>
<path class="st15" d="M373.5,580.6c-0.6,0-1.1-0.5-1.3-1c-0.2-0.3-2.3-8.8,1.3-14.6c1.6-2.6,4.1-4.2,7.3-4.9
	c0.8-0.2,1.5,0.3,1.6,1.1s-0.3,1.5-1.1,1.6c-2.4,0.5-4.4,1.6-5.5,3.6c-2.9,4.7-1,12.2-1,12.3c0.2,0.8-0.3,1.5-1,1.8
	C373.7,580.6,373.7,580.6,373.5,580.6z"/>
<g>
	<polygon class="st13" points="516,725.3 386.3,725.3 398.3,836.1 504.1,836.1 	"/>
	<polygon class="st27" points="516,725.3 386.3,725.3 398.3,836.1 504.1,836.1 	"/>
</g>
<g>
	<path class="st28" d="M1542.8,735.7v-6.8c0-3.1-2.4-5.5-5.5-5.5h-68.9c-3.1,0-5.5,2.4-5.5,5.5v107.5h80.1v-12.5
		c17.4,0,31-19.3,31-44C1574,755.1,1560.2,735.7,1542.8,735.7z M1542.8,812.6v-65.8c10.7,0,19.8,15.1,19.8,32.8
		S1553.5,812.6,1542.8,812.6z"/>
	<path class="st29" d="M1542.8,735.7v-6.8c0-3.1-2.4-5.5-5.5-5.5h-68.9c-3.1,0-5.5,2.4-5.5,5.5v107.5h80.1v-12.5
		c17.4,0,31-19.3,31-44C1574,755.1,1560.2,735.7,1542.8,735.7z M1542.8,812.6v-65.8c10.7,0,19.8,15.1,19.8,32.8
		S1553.5,812.6,1542.8,812.6z"/>
</g>
<polygon class="st7" points="1542.8,746.9 1533.7,746.9 1542.8,772.1 "/>
<polygon class="st7" points="1542.8,823.9 1533.7,823.9 1542.8,828 "/>
</svg>
