<?xml version="1.0" encoding="utf-8"?>
<!-- Generator: Adobe Illustrator 25.2.1, SVG Export Plug-In . SVG Version: 6.00 Build 0)  -->
<svg version="1.1" id="Livello_1" xmlns="http://www.w3.org/2000/svg" xmlns:xlink="http://www.w3.org/1999/xlink" x="0px" y="0px"
	 viewBox="0 0 2000 2000" style="enable-background:new 0 0 2000 2000;" xml:space="preserve">
<style type="text/css">
	.st0{fill:#FFFFFF;}
	.st1{fill:#D6D6D6;}
	.st2{fill:#658E8B;}
	.st3{fill:#BCBCBC;}
	.st4{fill:#ADADAD;}
	.st5{fill:#436D6B;}
	.st6{fill:#365452;}
	.st7{fill:#511814;}
	.st8{fill:#5B4727;}
	.st9{fill:#8C693F;}
	.st10{fill:#5F5F5F;}
	.st11{fill:#E0E0E0;}
	.st12{fill:#C4C4C4;}
	.st13{fill:#3F4242;}
	.st14{fill:#EAEAEA;}
	.st15{fill:#B7B7B7;}
	.st16{fill:#F9F9F9;}
	.st17{fill:#568584;}
	.st18{fill:#9B7323;}
	.st19{fill:#6D6D6D;}
	.st20{fill:#B2B2B2;}
	.st21{fill:#666666;}
	.st22{fill:#999999;}
	.st23{fill:#D1D1D1;}
	.st24{fill:#A0A0A0;}
	.st25{fill:#686868;}
	.st26{fill:#383838;}
	.st27{fill:#E5E5E5;}
	.st28{fill:#5B5B5B;}
</style>
<g>
	<polygon class="st1" points="1868.84,1039.73 863.96,1620.85 195.21,1237.73 1200.1,657.07 	"/>
	<polygon class="st2" points="1768.04,1051.68 884.2,1562.81 296.01,1225.83 1179.85,715.12 	"/>
	<polygon class="st3" points="1868.84,1039.73 1868.84,1132.87 863.96,1712.1 863.96,1620.85 	"/>
	<polygon class="st4" points="863.96,1712.1 195.21,1326.88 195.21,1237.73 863.96,1620.85 	"/>
	<polygon class="st5" points="1082.63,405.29 1310.71,533.01 1310.71,954.47 1082.63,826.75 	"/>
	<polygon class="st5" points="1310.71,529.8 1457.99,446.65 1457.99,869.25 1310.71,954.47 	"/>
	<polygon class="st6" points="1090.52,401.11 1234.7,320.03 1457.99,446.65 1310.71,529.8 	"/>
	<polygon class="st6" points="1300.33,959.98 1310.71,954.47 1310.71,529.8 1300.33,535.31 	"/>
	<polygon class="st6" points="1300.33,535.31 1310.71,529.8 1090.52,401.11 1080.14,406.62 	"/>
	<polygon class="st6" points="1191.68,471.79 1191.68,896.4 1183.33,891.58 1183.33,466.91 	"/>
	<polygon class="st6" points="1191.68,471.79 1201.67,466.07 1193.02,461.01 1183.33,466.91 	"/>
	<polygon class="st6" points="1457.99,869.25 1457.99,896.4 1300.33,986.99 1300.33,959.98 	"/>
	<polygon class="st7" points="1300.33,986.99 1080.14,858.17 1080.14,831.29 1300.33,959.98 	"/>
	<g>
		<polygon class="st6" points="1218.71,717.82 1218.77,687.85 1201.34,677.79 1201.34,707.99 		"/>
		<polygon class="st6" points="1218.71,717.82 1218.77,687.85 1221.25,686.32 1221.25,716.52 		"/>
		<polygon class="st6" points="1221.25,686.36 1203.84,676.38 1201.34,677.79 1218.77,687.85 		"/>
	</g>
	<g>
		<polygon class="st6" points="1172.5,692.43 1172.56,662.46 1155.13,652.4 1155.13,682.6 		"/>
		<polygon class="st6" points="1172.5,692.43 1172.56,662.46 1175.04,660.94 1175.04,691.14 		"/>
		<polygon class="st6" points="1175.04,660.97 1157.63,650.99 1155.13,652.4 1172.56,662.46 		"/>
	</g>
	<polygon class="st8" points="726.89,960.7 726.89,1051.94 753.74,1036.57 753.74,945.18 	"/>
	<polygon class="st9" points="726.89,929.1 1073.17,1130.64 1313.31,991.81 968.1,790.8 	"/>
	<polygon class="st10" points="726.89,960.73 726.89,776.33 967.57,637.5 967.57,760.19 754.21,882.82 	"/>
	<g>
		<polygon class="st11" points="726.89,898.48 1073.17,1100.03 1313.31,961.2 968.1,760.19 		"/>
		<polygon class="st12" points="726.89,898.48 726.89,930.11 1073.83,1130.64 1073.17,1100.03 		"/>
	</g>
	<polygon class="st13" points="726.89,776.33 717.09,770.69 957.23,632.46 967.57,637.5 	"/>
	<polygon class="st14" points="858.71,823.58 858.71,789.14 903.24,815.01 903.24,849.83 	"/>
	<g>
		<polygon class="st12" points="763.61,877.43 763.61,816.28 808.14,868.86 808.14,903.68 		"/>
		<polygon class="st15" points="977.89,771.97 907.7,812.43 808.14,868.86 808.14,903.68 907.72,847.42 907.72,847.27 
			977.89,807.11 		"/>
		<polygon class="st16" points="933.91,718.56 859.74,761.83 763.61,816.28 808.14,868.86 903.24,815.01 977.89,771.97 		"/>
	</g>
	<polygon class="st10" points="1073.17,1130.64 726.89,929.1 726.89,960.69 726.89,960.69 726.89,776.33 717.1,770.68 717.1,955.67 
		717.1,955.67 717.1,955.67 717.08,1046.7 726.91,1051.94 726.91,960.74 1059.72,1152.79 1059.72,1243.82 1073.83,1252.5 
		1073.83,1161.26 	"/>
	<polygon class="st13" points="1286.46,1129.39 1274.08,1122.54 1274.28,1045.3 1286.46,1038.15 	"/>
	<polygon class="st5" points="833.64,991.81 833.64,961.2 1064.06,1094.95 1064.06,1125.56 	"/>
	<polygon class="st17" points="833.64,961.2 1076.55,823.34 1313.31,961.2 1073.17,1100.31 	"/>
	<polygon class="st13" points="1313.43,861.07 1073.17,999.18 1064.06,993.99 1304.31,855.75 	"/>
	<polygon class="st10" points="1313.31,961.2 1313.43,861.07 1073.17,999.15 1073.17,1100.03 1073.17,1100.03 1073.17,1130.64 
		1073.17,1130.64 1073.83,1161.26 1073.83,1252.5 1100.68,1237.13 1100.68,1145.75 1286.45,1038.42 1286.45,1129.39 
		1313.31,1114.03 1313.31,1022.9 1313.31,1022.64 1313.31,991.81 1313.31,991.81 	"/>
	<polygon class="st13" points="1073.17,1130.74 1064.06,1125.56 1064.06,994.01 1073.17,999.2 	"/>
	<polygon class="st13" points="396,1142.99 396,1234.23 422.85,1218.86 422.85,1127.47 	"/>
	<polygon class="st9" points="396,1111.39 742.27,1312.93 982.41,1174.1 637.21,973.09 	"/>
	<polygon class="st10" points="396,1143.01 396,958.62 636.67,819.79 636.67,942.48 423.31,1065.11 	"/>
	<g>
		<polygon class="st11" points="396,1080.77 742.27,1282.32 982.41,1143.49 637.21,942.48 		"/>
		<polygon class="st12" points="396,1080.77 396,1112.4 742.94,1312.93 742.27,1282.32 		"/>
	</g>
	<polygon class="st13" points="396,958.62 386.2,952.98 626.34,814.75 636.67,819.79 	"/>
	<polygon class="st14" points="527.82,1005.87 527.82,971.43 572.34,997.3 572.34,1032.12 	"/>
	<g>
		<polygon class="st12" points="432.72,1059.72 432.72,998.57 477.24,1051.15 477.24,1085.97 		"/>
		<polygon class="st15" points="646.99,954.26 576.81,994.72 477.24,1051.15 477.24,1085.97 576.82,1029.71 576.82,1029.56 
			646.99,989.4 		"/>
		<polygon class="st16" points="603.02,900.85 528.85,944.12 432.72,998.57 477.24,1051.15 572.34,997.3 646.99,954.26 		"/>
	</g>
	<polygon class="st10" points="742.27,1312.93 396,1111.39 396,1142.98 396,1142.97 396,958.62 386.21,952.97 386.21,1137.96 
		386.21,1137.96 386.21,1137.96 386.19,1228.99 396.02,1234.23 396.02,1143.02 728.82,1335.08 728.82,1426.11 742.94,1434.79 
		742.94,1343.55 	"/>
	<polygon class="st13" points="955.56,1311.68 943.19,1304.82 943.39,1227.59 955.56,1220.44 	"/>
	<polygon class="st5" points="502.75,1174.1 502.75,1143.49 733.16,1277.23 733.16,1307.85 	"/>
	<polygon class="st17" points="502.75,1143.49 745.65,1005.63 982.41,1143.49 742.28,1282.6 	"/>
	<polygon class="st13" points="982.54,1043.36 742.28,1181.47 733.16,1176.28 973.42,1038.04 	"/>
	<polygon class="st10" points="982.41,1143.49 982.54,1043.36 742.28,1181.44 742.28,1282.32 742.27,1282.32 742.28,1312.93 
		742.27,1312.93 742.94,1343.55 742.94,1434.79 769.79,1419.42 769.79,1328.04 955.56,1220.71 955.56,1311.68 982.41,1296.32 
		982.41,1205.19 982.41,1204.93 982.41,1174.1 982.41,1174.1 	"/>
	<polygon class="st13" points="742.28,1313.03 733.16,1307.85 733.16,1176.3 742.28,1181.49 	"/>
	<polygon class="st18" points="1508.86,769.79 1508.86,952.31 1698.25,1061.49 1698.25,878.43 	"/>
	<polygon class="st10" points="1413.34,824.66 1413.34,1007.17 1602.74,1116.36 1602.74,933.3 	"/>
	<polygon class="st13" points="1602.74,933.3 1698.25,878.43 1698.25,1061.49 1602.74,1116.36 	"/>
	<polygon class="st13" points="1413.34,824.66 1508.86,769.79 1698.25,878.43 1602.74,933.3 	"/>
	<polygon class="st13" points="1426.89,850.19 1426.89,911.37 1589.19,1005 1589.19,942.89 	"/>
	<g>
		<polygon class="st2" points="1481.19,905.69 1481.19,924.38 1529.71,952.5 1529.71,933.72 		"/>
		<polygon class="st2" points="1529.71,952.5 1534.9,949.49 1534.9,930.71 1529.71,933.72 		"/>
		<polygon class="st2" points="1529.71,933.72 1534.9,930.71 1486.37,902.69 1481.19,905.69 		"/>
	</g>
	<polygon class="st13" points="1426.89,918.2 1426.89,979.39 1589.19,1073.02 1589.19,1010.91 	"/>
	<g>
		<polygon class="st2" points="1481.19,973.71 1481.19,992.39 1529.71,1020.52 1529.71,1001.74 		"/>
		<polygon class="st2" points="1529.71,1020.52 1534.9,1017.51 1534.9,998.73 1529.71,1001.74 		"/>
		<polygon class="st2" points="1529.71,1001.74 1534.9,998.73 1486.37,970.7 1481.19,973.71 		"/>
	</g>
	<g>
		<path class="st19" d="M1561.07,835.75L1561.07,835.75l0-4.45h-83.82v5.39l0.03,0c0.34,5.92,4.37,11.77,12.11,16.24
			c16.24,9.4,42.94,9.4,59.34,0C1556.96,848.22,1561.07,841.99,1561.07,835.75z"/>
		<path class="st20" d="M1489.54,814.18c-16.32,9.47-16.38,24.91-0.14,34.31c16.24,9.4,42.94,9.4,59.34,0
			c16.4-9.4,16.46-24.84,0.14-34.31C1532.56,804.71,1505.85,804.71,1489.54,814.18z"/>
	</g>
	<g>
		<path class="st21" d="M1539.23,832.37L1539.23,832.37l0-2.13h-40.14v2.58h0.02c0.16,2.83,2.09,5.63,5.8,7.78
			c7.78,4.5,20.57,4.5,28.42,0C1537.26,838.35,1539.23,835.36,1539.23,832.37z"/>
		<path class="st22" d="M1504.97,822.04c-7.82,4.54-7.85,11.93-0.07,16.43c7.78,4.5,20.57,4.5,28.42,0
			c7.85-4.5,7.88-11.89,0.07-16.43C1525.58,817.5,1512.79,817.5,1504.97,822.04z"/>
	</g>
	<g>
		<path class="st23" d="M1528.79,829.79c0,0,0-0.01,0-0.01v-84.38h-19.26v84.36h0c0.01,1.46,0.96,2.92,2.87,4.03
			c3.8,2.21,9.93,2.21,13.64,0c1.84-1.1,2.76-2.54,2.75-3.98h0V829.79z"/>
		<path class="st24" d="M1512.32,741.39c-3.75,2.18-3.71,5.78,0.09,7.98c3.8,2.21,9.93,2.21,13.64,0c3.7-2.21,3.66-5.8-0.09-7.98
			C1522.21,739.21,1516.07,739.21,1512.32,741.39z"/>
	</g>
	<path class="st11" d="M1571.98,722.2L1571.98,722.2l-0.02-0.12c-0.2-1.11-0.51-2.22-0.92-3.31l-20.17-72.33l-31.7,3.76l-31.7-3.76
		l-20.24,72.62c-0.35,0.97-0.63,1.95-0.82,2.93l-0.04,0.15h0.01c-1.66,8.93,3.35,18.19,15.06,24.97c20.58,11.91,54.42,11.91,75.19,0
		C1568.44,740.35,1573.55,731.12,1571.98,722.2z"/>
	<path class="st17" d="M1496.54,635.22c-12.46,7.23-12.51,19.02-0.11,26.2c12.4,7.17,32.79,7.17,45.31,0
		c12.52-7.17,12.57-18.96,0.11-26.2C1529.39,627.98,1509,627.98,1496.54,635.22z"/>
	<path class="st5" d="M1504.55,639.85c-8.05,4.67-8.08,12.28-0.07,16.92s21.18,4.63,29.26,0c8.08-4.63,8.12-12.25,0.07-16.92
		C1525.77,635.18,1512.6,635.18,1504.55,639.85z"/>
	<g>
		<polygon class="st25" points="1527.3,774.32 1527.28,774.33 1521.47,777.69 1521.76,777.86 1521.76,777.86 1527.57,774.5 
			1527.57,774.5 1527.57,774.5 1527.57,774.5 1527.57,774.5 		"/>
		<polygon class="st26" points="1521.76,783.82 1527.57,780.46 1527.57,774.5 1521.76,777.86 		"/>
		<polygon class="st27" points="1522.67,782.37 1526.67,780.05 1526.67,775.95 1522.67,778.26 		"/>
		<polygon class="st12" points="1521.76,777.86 1527.57,774.5 1527.57,774.5 		"/>
		<polygon class="st28" points="1521.47,777.69 1521.47,783.65 1521.76,783.82 1521.76,777.86 		"/>
	</g>
	<g>
		<polygon class="st25" points="1527.3,783.27 1527.28,783.27 1521.47,786.64 1521.76,786.81 1521.76,786.81 1527.57,783.44 
			1527.57,783.44 1527.57,783.44 1527.57,783.44 1527.57,783.44 		"/>
		<polygon class="st26" points="1521.76,792.76 1527.57,789.4 1527.57,783.44 1521.76,786.81 		"/>
		<polygon class="st27" points="1522.67,791.31 1526.67,789 1526.67,784.9 1522.67,787.21 		"/>
		<polygon class="st12" points="1521.76,786.81 1527.57,783.44 1527.57,783.44 		"/>
		<polygon class="st28" points="1521.47,786.64 1521.47,792.59 1521.76,792.76 1521.76,786.81 		"/>
	</g>
</g>
</svg>
